<svg xmlns="http://www.w3.org/2000/svg" width="24" height="24" viewBox="0 0 24 24">
<path fill="none" d="M0,0h24v24H0V0z"/>
<path d="M10,12.5H4c-0.6,0-1,0.4-1,1v6c0,0.6,0.4,1,1,1h6c0.6,0,1-0.4,1-1v-6C11,12.9,10.6,12.5,10,12.5z M10,2.5H4
	c-0.6,0-1,0.4-1,1v6c0,0.6,0.4,1,1,1h6c0.6,0,1-0.4,1-1v-6C11,2.9,10.6,2.5,10,2.5z"/>
<path d="M20,13.5h-6c-0.6,0-1,0.4-1,1v6c0,0.6,0.4,1,1,1h6c0.6,0,1-0.4,1-1v-6C21,13.9,20.6,13.5,20,13.5z M20,3.5h-6
	c-0.6,0-1,0.4-1,1v6c0,0.6,0.4,1,1,1h6c0.6,0,1-0.4,1-1v-6C21,3.9,20.6,3.5,20,3.5z"/>
</svg>
