<?xml version="1.0" encoding="utf-8"?>
<!-- Generator: Adobe Illustrator 18.1.0, SVG Export Plug-In . SVG Version: 6.00 Build 0)  -->
<svg version="1.1" id="レイヤー_1" xmlns="http://www.w3.org/2000/svg" xmlns:xlink="http://www.w3.org/1999/xlink" x="0px"
	 y="0px" viewBox="-2137 1506 24 24" enable-background="new -2137 1506 24 24" xml:space="preserve">
<path fill="none" d="M-2137,1506h24v24h-24V1506z"/>
<path d="M-2127,1518h-6c-0.6,0-1,0.4-1,1v6c0,0.6,0.4,1,1,1h6c0.6,0,1-0.4,1-1v-6C-2126,1518.4-2126.4,1518-2127,1518z M-2127,1508
	h-6c-0.6,0-1,0.4-1,1v6c0,0.6,0.4,1,1,1h6c0.6,0,1-0.4,1-1v-6C-2126,1508.4-2126.4,1508-2127,1508z"/>
<path d="M-2117,1520h-6c-0.6,0-1,0.4-1,1v6c0,0.6,0.4,1,1,1h6c0.6,0,1-0.4,1-1v-6C-2116,1520.4-2116.4,1520-2117,1520z M-2117,1510
	h-6c-0.6,0-1,0.4-1,1v6c0,0.6,0.4,1,1,1h6c0.6,0,1-0.4,1-1v-6C-2116,1510.4-2116.4,1510-2117,1510z"/>
</svg>
