<svg xmlns="http://www.w3.org/2000/svg" viewBox="0 300 960 600">
    <defs>
        <g id="logo">
        <path fill="#FFFFFF" d="M88.5,580.5c-6.7,6.4-14.8,9.8-24.1,9.8c-12.9,0-23.2-3.6-31.4-10.9c-7.8-7.3-12-16-12-25.5
            c0-5,0.6-9.5,2-13.2l-0.6-1.1c-1.7-2-5-2.8-10.6-2.8c-3.1,0-5.9,1.7-8.1,5s-3.4,8.1-3.4,14c0,12.6,6.2,23.2,18.2,31.6
            c12,8.4,26.3,12.6,42.8,12.6s30-4.2,40.9-12.3s16.2-19.9,16.2-35.3c0-8.7-1.7-16.2-4.8-22.4c-3.4-6.2-7.3-10.9-12.6-14.3
            c-5-3.4-10.9-6.2-17.1-8.7c-6.2-2.2-12.6-4.5-18.8-6.4c-6.2-2-12-4.2-17.1-7c-5-2.5-9.2-6.2-12.6-10.9c-3.4-4.8-4.8-10.6-4.8-17.6
            s2.5-12.9,7.8-17.9c5.3-4.8,12.6-7.3,21.6-7.3c9.2,0,17.1,2.2,24.1,7s10.4,11.2,10.4,19.3c0,5.3-0.8,9-2.2,10.6l0.6,1.1
            c1.4,2.2,5,3.1,10.6,3.1c3.1,0,5.6-1.4,7.8-4.2c2.2-2.8,3.4-7,3.4-12.9c0-8.4-4.5-16-13.7-23c-9.2-6.7-21.6-10.4-37-10.4
            s-28,3.9-37.8,11.5c-9.8,7.6-14.8,18.2-14.8,31.4c0,7.8,1.7,14.3,4.8,19.9c3.4,5.3,7.3,9.8,12.6,12.9c5,3.1,10.6,5.6,16.8,7.8
            c6.2,2.2,12.3,4.5,18.5,6.4c6.2,2.2,11.8,4.5,16.8,7.3c5,2.8,9.2,6.4,12.6,11.5c3.4,4.8,4.8,10.6,4.8,17.6
            C98.5,566.3,95.2,574.1,88.5,580.5z"/>
        <path fill="#FFFFFF" d="M214.2,542.7c0,12.9-3.6,22.7-10.6,29.4c-7,6.7-15.1,10.1-23.8,10.1s-16-2.2-21.3-7s-8.7-11.5-10.1-20.7
            c14,0,25.2-3.6,34.2-10.6s13.4-16,13.4-26.9c0-6.7-2-12.3-6.2-17.1c-4.2-4.8-10.6-7.3-19.9-7.3c-12.6,0-22.7,4.5-30.8,13.2
            s-12,21-12,36.7s4.5,27.7,13.7,35.6c9.2,8.1,21.3,12,36.1,12c14.8,0,26.3-4.5,33.6-13.2s11.2-18.5,11.2-29.1c0-4.5-1.4-7-4.5-7
            C215.3,541.6,214.2,541.9,214.2,542.7L214.2,542.7z M152,510.8c2.8-6.7,7.8-9.8,14.6-9.8c4.5,0,7.8,1.4,10.4,4.5
            c2.5,2.8,3.6,7.3,3.6,12.9c0,8.7-3.4,15.4-9.8,19.9c-6.4,4.5-14.3,7.3-23.2,8.4v-2C147.8,528.7,149.2,517.5,152,510.8z"/>
        <path fill="#FFFFFF" d="M212.5,505.8v34.4c0,15.7,3.9,28,11.5,37s17.6,13.4,30,13.4c6.4,0,12.6-2,18.2-6.2
            c6.2,3.9,13.2,6.2,21.6,6.2c12.3,0,21.6-3.9,27.4-11.8c6.2-7.8,9-17.6,9-29.7c0-6.7-1.4-10.1-3.9-10.1c-2,0-3.1,0.6-3.4,1.4
            c0,14.3-2.5,24.6-7.8,31.6c-5,7-11.8,10.4-19.9,10.4c-6.2,0-11.5-1.4-16.2-4.2c11.8-14.3,17.9-35,17.9-62.4c0-7.6-2-13.7-6.2-18.2
            s-9.5-7-16.2-7c-9.8,0-16.8,3.6-20.7,10.9c-4.2,7.3-6.2,17.9-6.2,32.2c0,8.1,1.4,16.2,4.5,24.9s7.6,15.7,13.4,21.6
            c-2.8,2.2-5.9,3.4-9.5,3.4c-16.5,0-24.6-14-24.6-41.7v-46.2c-2-2-4.8-3.1-7.8-3.1c-3.4,0-6.2,1.1-8.1,3.4
            C213.6,498.2,212.5,501.6,212.5,505.8L212.5,505.8z M280.2,521.2c0,23.8-2.8,40.9-8.1,51c-8.7-9.9-13.1-23.9-13.1-42.3
            c0-18.5,4.2-27.7,12.6-27.7C277.2,501.9,280.2,508.3,280.2,521.2L280.2,521.2z"/>
        <path fill="#FFFFFF" d="M410.1,542.7c0,12.9-3.6,22.7-10.6,29.4c-7,6.7-15.1,10.1-23.8,10.1s-16-2.2-21.3-7s-8.7-11.5-10.1-20.7
            c14,0,25.2-3.6,34.2-10.6s13.4-16,13.4-26.9c0-6.7-2-12.3-6.2-17.1c-4.2-4.8-10.6-7.3-19.9-7.3c-12.6,0-22.7,4.5-30.8,13.2
            c-8.1,8.7-12,21-12,36.7s4.5,27.7,13.7,35.6c9.2,8.1,21.3,12,36.1,12c15.1,0,26.3-4.5,33.6-13.2c7.3-8.7,11.2-18.5,11.2-29.1
            c0-4.5-1.4-7-4.5-7C411.5,541.6,410.4,541.9,410.1,542.7L410.1,542.7z M348.3,510.8c2.8-6.7,7.8-9.8,14.6-9.8
            c4.5,0,7.8,1.4,10.4,4.5c2.5,2.8,3.6,7.3,3.6,12.9c0,8.7-3.4,15.4-9.8,19.9s-14.3,7.3-23.2,8.4v-2
            C343.8,528.7,345.2,517.5,348.3,510.8z"/>
        <path fill="#FFFFFF" d="M523.8,540.2c0,15.1-2,26-5.9,32.5c-3.9,6.4-8.4,9.5-13.4,9.5s-9-2-11.5-6.2s-3.9-10.4-3.9-18.5v-30.8
            c0-10.9-2.8-19.6-8.4-25.5c-5.6-5.9-12.9-8.7-22.1-8.7c-13.2,0-22.7,5.3-28.6,16.2c0-10.6-3.6-16.2-11.2-16.2
            c-3.9,0-6.7,1.1-8.1,3.1v81.7c0,4.2,1.1,7.6,3.4,9.8c2.2,2.2,5,3.4,8.7,3.4s6.2-1.1,7.6-3.1v-36.7c0-18.2,2.5-31.1,7.3-38.9
            s11.2-11.5,18.8-11.5c8.7,0,12.9,8.4,12.9,25.5V551c0,12.6,2.8,22.4,8.1,29.1c5.3,6.7,13.2,10.4,23.2,10.4c10.1,0,17.6-3.6,23-10.9
            c5.3-7.3,7.8-17.1,7.8-29.1c0-7.6-1.4-11.5-3.9-11.5C524.9,538.8,523.8,539.4,523.8,540.2L523.8,540.2z"/>
        <path fill="#FFFFFF" d="M524.1,473.9v79c0,12.6,3.6,21.8,10.6,28.3c7,6.4,16.5,9.5,28.6,9.5c12,0,21-3.9,26.9-11.5
            c5.9-7.6,8.7-17.1,8.7-28.8c0-7.6-1.4-11.5-3.9-11.5c-2,0-3.1,0.6-3.4,1.4c0,14.8-2,25.5-6.2,31.9c-4.2,6.7-10.6,9.8-19.6,9.8
            c-5.9,0-11.2-2.2-15.7-6.4s-6.7-10.4-6.7-18.2v-54h36.7c0-2.8-0.6-4.8-1.4-5.9c-0.8-1.1-2.8-1.7-5.9-1.7h-29.4v-31.9
            c-2-2-4.8-3.1-7.8-3.1c-3.4,0-6.2,1.1-8.1,3.4C525.2,466.3,524.1,469.7,524.1,473.9L524.1,473.9z"/>
        <path fill="#FFFFFF" d="M679.2,542.7c0,12.9-3.6,22.7-10.6,29.4c-7,6.7-15.1,10.1-23.8,10.1s-16-2.2-21.3-7s-8.7-11.5-10.1-20.7
            c14,0,25.2-3.6,34.2-10.6s13.4-16,13.4-26.9c0-6.7-2-12.3-6.2-17.1c-4.2-4.8-10.6-7.3-19.9-7.3c-12.6,0-22.7,4.5-30.8,13.2
            s-12,21-12,36.7s4.5,27.7,13.7,35.6c9.2,8.1,21.3,12,36.1,12c15.1,0,26.3-4.5,33.6-13.2s11.2-18.5,11.2-29.1c0-4.5-1.4-7-4.5-7
            C680.3,541.6,679.5,541.9,679.2,542.7L679.2,542.7z M617.3,510.8c2.8-6.7,7.8-9.8,14.6-9.8c4.5,0,7.8,1.4,10.4,4.5
            c2.5,2.8,3.6,7.3,3.6,12.9c0,8.7-3.4,15.4-9.8,19.9c-6.4,4.5-14.3,7.3-23.2,8.4v-2C612.8,528.7,614.2,517.5,617.3,510.8z"/>
        <path fill="#FFFFFF" d="M766.8,542.7c0,12.9-3.6,22.7-10.6,29.4c-7,6.7-15.1,10.1-23.8,10.1s-16-2.2-21.3-7s-8.7-11.5-10.1-20.7
            c14,0,25.2-3.6,34.2-10.6s13.4-16,13.4-26.9c0-6.7-2-12.3-6.2-17.1c-4.2-4.8-10.6-7.3-19.9-7.3c-12.6,0-22.7,4.5-30.8,13.2
            s-12,21-12,36.7s4.5,27.7,13.7,35.6c9.2,8.1,21.3,12,36.1,12c15.1,0,26.3-4.5,33.6-13.2s11.2-18.5,11.2-29.1c0-4.5-1.4-7-4.5-7
            C767.9,541.6,766.8,541.9,766.8,542.7L766.8,542.7z M704.7,510.8c2.8-6.7,7.8-9.8,14.6-9.8c4.5,0,7.8,1.4,10.4,4.5
            c2.5,2.8,3.6,7.3,3.6,12.9c0,8.7-3.4,15.4-9.8,19.9c-6.4,4.5-14.3,7.3-23.2,8.4v-2C700.2,528.7,701.9,517.5,704.7,510.8z"/>
        <path fill="#FFFFFF" d="M880.2,540.2c0,15.1-2,26-5.9,32.5c-3.9,6.4-8.4,9.5-13.4,9.5s-9-2-11.5-6.2s-3.9-10.4-3.9-18.5v-30.8
            c0-10.9-2.8-19.6-8.4-25.5c-5.6-5.9-12.9-8.7-22.1-8.7c-13.2,0-22.7,5.3-28.6,16.2c0-10.6-3.6-16.2-11.2-16.2
            c-3.9,0-6.7,1.1-8.1,3.1v81.7c0,4.2,1.1,7.6,3.4,9.8c2.2,2.2,5,3.4,8.7,3.4c3.6,0,6.2-1.1,7.6-3.1v-36.7c0-18.2,2.5-31.1,7.3-38.9
            s11.2-11.5,18.8-11.5c8.7,0,12.9,8.4,12.9,25.5V551c0,12.6,2.8,22.4,8.1,29.1c5.3,7,13.2,10.4,23.2,10.4c10.1,0,17.6-3.6,23-10.9
            c5.3-7.3,7.8-17.1,7.8-29.1c0-7.6-1.4-11.5-3.9-11.5C881.6,538.8,880.5,539.4,880.2,540.2L880.2,540.2z"/>
        <path fill="#FFFFFF" d="M920.5,546.7c13.7,4.8,20.4,11.2,20.4,19.3c-0.3,10.6-7.8,16.2-23,16.2c-9.8,0-17.6-3.1-23.2-9.5
            c-5.6-6.4-8.4-14.3-8.4-23.8c0-3.1,0.6-5.9,1.4-7.8l-0.6-0.6c-0.6-1.4-2.8-2-6.4-2c-2,0-3.9,1.1-5.3,3.4c-1.7,2.2-2.2,5.3-2.2,9.5
            c0,11.2,3.9,20.4,12,28c8.1,7.6,18.8,11.2,31.6,11.2c12.9,0,23.5-2.2,31.4-6.7c7.8-4.5,12-11.5,12-20.4c0-6.2-2-11.5-6.2-15.7
            s-9-7.6-14.8-9.8c-5.9-2.2-11.5-4.5-17.4-6.4c-5.9-2-10.6-4.5-14.8-7.6c-4.2-3.1-6.2-6.4-6.2-10.6s1.7-7,5.3-9.2
            c3.6-2,8.1-3.1,13.4-3.1s10.4,1.1,14.8,3.6c4.5,2.5,6.7,5,6.7,8.1c0,2.8-0.6,5-1.4,5.9c1.1,1.7,3.6,2.5,7,2.5c2,0,3.6-0.8,5.6-2.2
            c2-1.7,2.8-3.6,2.8-6.2c0-5.3-3.4-10.1-9.8-14c-6.4-3.9-15.7-6.2-27.2-6.2s-20.4,2-26.3,6.2c-6.2,4.2-9,9.5-9,16
            c0,6.4,2,11.8,5.9,16s8.7,7.3,14.3,9.5C909,542.5,914.6,544.7,920.5,546.7L920.5,546.7z"/>
        <path fill="#FFFFFF" d="M863.1,489.8c4.2,0,8.1-2.2,11.2-6.7c3.1-4.5,4.5-10.1,4.5-16.8s-1.4-12-4.5-15.7
            c-2.8-3.6-6.4-5.6-10.4-5.6c-3.9,0-7,0.8-9,3.1c-2,2-3.1,4.5-3.1,7.3s0.8,5.3,2.8,7.3s4.5,3.1,7.6,3.1s5.6-1.4,7.8-3.9
            c0.3,1.1,0.3,3.4,0.3,7c0,3.6-1.1,6.7-3.4,9.5c-2.2,2.8-5.3,3.9-9.2,3.9c-0.8,0.8-1.4,1.7-1.4,3.1c0,1.4,0.6,2.5,2,3.4
            C859.8,489.5,861.2,489.8,863.1,489.8L863.1,489.8z"/>
        </g>
    </defs>
</svg>